<svg xmlns="http://www.w3.org/2000/svg" version="1.1" xmlns:xlink="http://www.w3.org/1999/xlink" xmlns:svgjs="http://svgjs.dev/svgjs" width="128" height="128" viewBox="0 0 128 128"><g transform="matrix(0.8046875,0,0,0.8046875,12.763914064551876,12.745666431453145)"><svg viewBox="0 0 95 95" data-background-color="#21232b" preserveAspectRatio="xMidYMid meet" height="128" width="128" xmlns="http://www.w3.org/2000/svg" xmlns:xlink="http://www.w3.org/1999/xlink"><g id="tight-bounds" transform="matrix(1,0,0,1,-0.24341588478085896,-0.22658554357329308)"><svg viewBox="0 0 95.481 95.45317108714659" height="95.45317108714659" width="95.481"><g><svg viewBox="0 0 95.481 95.45317108714659" height="95.45317108714659" width="95.481"><g><svg viewBox="0 0 95.481 95.45317108714659" height="95.45317108714659" width="95.481"><g id="textblocktransform"><svg viewBox="0 0 95.481 95.45317108714659" height="95.45317108714659" width="95.481" id="textblock"><g><svg viewBox="0 0 95.481 95.45317108714659" height="95.45317108714659" width="95.481"><g><svg viewBox="0 0 95.481 95.45317108714659" height="95.45317108714659" width="95.481"><g><svg xmlns="http://www.w3.org/2000/svg" xml:space="preserve" viewBox="5.143 5.361 89.206 89.17999999999999" x="0" y="0" height="95.45317108714659" width="95.481" class="icon-icon-0" data-fill-palette-color="accent" id="icon-0"><path fill-rule="evenodd" d="M50.026 94.541C25.69 94.528 5.245 76.394 5.143 49.977 5.245 23.509 26.749 5.361 50.078 5.361c26.672 0 44.169 23.916 44.169 44.615 0 7.045 0 7.325-2.348 14.076l-52.617 0.026c-1.251-0.013-2.259-1.34-2.259-2.591s1.034-1.953 2.272-1.953l10.707-0.102v-1.225H32.428a2.255 2.255 0 0 1-2.259-2.259c0-1.251 1.034-2.233 2.272-2.233h17.56l-0.013-1.493H30.233c-1.251-0.013-2.259-1.021-2.259-2.272s1.021-2.259 2.259-2.259h19.768v-1.506H34.763a2.274 2.274 0 0 1-2.259-2.272c0-1.251 1.034-2.195 2.259-2.17h26.634V40.15H52.17c-1.2-0.013-2.182-1.021-2.182-2.272s1.161-2.208 2.182-2.208l9.125-0.026c6.777 0 11.345 6.1 11.345 10.541h3.637c-0.906-11.486-11.179-22.678-26.2-22.665-17.547-0.011-26.417 14.486-26.366 26.457C23.66 64.079 35.108 76.1 49.478 76.394c0-4.428 4.569-10.529 11.345-10.529l9.125 0.026c1.021 0 2.182 0.957 2.182 2.208s-0.983 2.259-2.182 2.272h-9.227v1.595h26.838c1.225-0.026 2.259 0.919 2.259 2.17s-1.008 2.259-2.259 2.272H72.117v1.506H92.09a2.263 2.263 0 0 1 2.259 2.259 2.274 2.274 0 0 1-2.259 2.272H72.13l-0.013 1.493h17.765c1.238 0 2.272 0.983 2.272 2.233a2.255 2.255 0 0 1-2.259 2.259H72.117v1.429l10.911 0.102c1.238 0 2.272 0.702 2.272 1.953s-1.008 2.578-2.259 2.591z" clip-rule="evenodd" fill="#16a085" data-fill-palette-color="accent"></path></svg></g></svg></g></svg></g></svg></g></svg></g><g></g></svg></g><defs></defs></svg><rect width="95.481" height="95.45317108714659" fill="none" stroke="none" visibility="hidden"></rect></g></svg></g></svg>