<svg xmlns="http://www.w3.org/2000/svg" version="1.1" xmlns:xlink="http://www.w3.org/1999/xlink" xmlns:svgjs="http://svgjs.dev/svgjs" width="2000" height="388" viewBox="0 0 2000 388"><g transform="matrix(1,0,0,1,-1.2121212121212466,0.99068055174439)"><svg viewBox="0 0 396 77" data-background-color="#21232b" preserveAspectRatio="xMidYMid meet" height="388" width="2000" xmlns="http://www.w3.org/2000/svg" xmlns:xlink="http://www.w3.org/1999/xlink"><g id="tight-bounds" transform="matrix(1,0,0,1,0.2400000000000091,-0.19660413011422406)"><svg viewBox="0 0 395.52 77.39320826022846" height="77.39320826022846" width="395.52"><g><svg viewBox="0 0 506.7116150150767 99.15058037201288" height="77.39320826022846" width="395.52"><g transform="matrix(1,0,0,1,111.1916150150767,24.134059886611773)"><svg viewBox="0 0 395.52 50.882460598789336" height="50.882460598789336" width="395.52"><g id="textblocktransform"><svg viewBox="0 0 395.52 50.882460598789336" height="50.882460598789336" width="395.52" id="textblock"><g><svg viewBox="0 0 395.52 50.882460598789336" height="50.882460598789336" width="395.52"><g transform="matrix(1,0,0,1,0,0)"><svg width="395.52" viewBox="2.15 -32.57 255.78735293893598 32.910000000000004" height="50.882460598789336" data-palette-color="#444444"><path d="M30.71-9.08L30.96-8.94Q30.96-8.4 30.27-5.2 29.59-2 29.3-1.86L29.3-1.86Q25.73 0.29 17.63 0.29L17.63 0.29Q11.18 0.29 6.67-4.44 2.15-9.18 2.15-15.72L2.15-15.72Q2.15-22.66 6.79-27.61 11.43-32.57 18.16-32.57L18.16-32.57Q23.93-32.57 30.03-31.35L30.03-31.35Q29.93-24.8 29.93-24.32L29.93-24.32Q29.93-23.58 28.91-23.58L28.91-23.58Q28.42-23.58 28.27-23.83L28.27-23.83Q28.13-24.46 27.91-25.12 27.69-25.78 26.98-26.83 26.27-27.88 25.27-28.64 24.27-29.39 22.44-29.96 20.61-30.52 18.31-30.52L18.31-30.52Q13.53-30.52 10.16-26.29 6.79-22.07 6.79-16.75L6.79-16.75Q6.79-12.79 8.15-9.47 9.52-6.15 12.48-3.98 15.43-1.81 19.48-1.81L19.48-1.81Q24.32-1.81 26.95-4.64L26.95-4.64Q27.64-5.37 28.15-6.57 28.66-7.76 28.93-8.57 29.2-9.38 29.35-9.38L29.35-9.38Q29.64-9.38 30.05-9.28 30.47-9.18 30.71-9.08L30.71-9.08ZM38.86-3.15Q39.69-2.44 41.01-2.44 42.33-2.44 43.55-3.25 44.77-4.05 44.77-4.88L44.77-4.88 44.77-9.91Q44.38-9.72 42.87-9.23 41.35-8.74 40.5-8.37 39.65-8.01 38.84-7.15 38.03-6.3 38.03-5.18L38.03-5.18Q38.03-3.86 38.86-3.15ZM43.45-21.29L43.45-21.29Q46.14-21.29 47.31-20 48.48-18.7 48.48-15.82L48.48-15.82 48.48-4.54Q48.48-3.52 49.02-2.83 49.56-2.15 50.49-2.15L50.49-2.15Q51.17-2.15 52.19-2.83L52.19-2.83Q52.39-2.83 52.39-2.44L52.39-2.44Q52.39-1.81 52.15-1.42L52.15-1.42Q50.14 0.29 48.73 0.29L48.73 0.29Q47.6 0.29 46.58-0.63 45.55-1.56 45.16-2.59L45.16-2.59Q45.11-2.59 44.8-2.27 44.48-1.95 43.94-1.54 43.41-1.12 42.7-0.68 41.99-0.24 41.04 0.05 40.09 0.34 39.11 0.34L39.11 0.34Q36.86 0.34 35.4-0.85 33.93-2.05 33.93-4.44L33.93-4.44Q33.93-5.52 34.47-6.47 35.01-7.42 35.74-8.03 36.47-8.64 37.74-9.28 39.01-9.91 39.91-10.23 40.82-10.55 42.28-11.04 43.75-11.52 44.33-11.77L44.33-11.77Q44.77-11.91 44.77-12.5L44.77-12.5 44.77-16.16Q44.77-17.72 43.8-18.58 42.82-19.43 41.45-19.43L41.45-19.43Q39.99-19.43 39.01-18.43 38.03-17.43 38.03-15.82L38.03-15.82Q38.03-14.11 36.03-14.11L36.03-14.11Q34.67-14.11 34.13-15.04L34.13-15.04Q34.13-17.14 37.2-19.21 40.28-21.29 43.45-21.29ZM66.99-21.34L66.99-21.34Q69.87-21.34 70.8-19.92L70.8-19.92Q70.8-18.21 70.26-17.43 69.72-16.65 68.94-16.65L68.94-16.65Q68.06-16.65 67.33-17.48 66.6-18.31 65.33-18.31L65.33-18.31Q63.81-18.31 62.69-16.89 61.57-15.48 61.57-13.92L61.57-13.92 61.57-6.59Q61.57-3.76 61.96-2.25L61.96-2.25Q62.06-1.9 63.25-1.59 64.45-1.27 64.94-1.27L64.94-1.27Q65.08-1.27 65.13-0.68 65.18-0.1 65.08 0.15L65.08 0.15Q60.2-0.1 59.81-0.1L59.81-0.1Q59.52-0.1 54.49 0.15L54.49 0.15Q54.29-0.05 54.29-0.66 54.29-1.27 54.49-1.27L54.49-1.27Q55.07-1.27 56.22-1.59 57.37-1.9 57.47-2.25L57.47-2.25Q57.81-3.66 57.81-5.66L57.81-5.66 57.81-14.89Q57.81-16.8 57.12-17.53L57.12-17.53Q56.64-18.12 55.93-18.33 55.22-18.55 54.76-18.55 54.29-18.55 54.29-18.65L54.29-18.65Q54.29-19.82 54.58-19.87L54.58-19.87Q59.76-20.65 61.32-21.14L61.32-21.14Q61.37-21.14 61.47-21.17 61.57-21.19 61.57-21.19L61.57-21.19Q61.76-21.19 61.81-20.78 61.86-20.36 61.81-20.17L61.81-20.17 61.52-17.72Q62.4-19.04 63.94-20.19 65.47-21.34 66.99-21.34ZM82.22-19.48L82.22-19.48Q79.68-19.48 78.34-17.31 76.99-15.14 76.99-13.72L76.99-13.72Q76.99-13.38 77.29-13.38L77.29-13.38 86.81-13.38Q87.05-13.38 87.05-13.87L87.05-13.87Q87.05-15.43 85.73-17.46 84.42-19.48 82.22-19.48ZM82.71-21.29L82.71-21.29Q84.95-21.29 86.66-20.43 88.37-19.58 89.27-18.24 90.18-16.89 90.59-15.5 91.01-14.11 91.01-12.74L91.01-12.74Q91.01-11.77 90.72-11.55 90.42-11.33 89.59-11.33L89.59-11.33 77.29-11.33Q76.9-11.33 76.9-11.08L76.9-11.08Q76.9-8.01 78.75-5.42 80.61-2.83 84.12-2.83L84.12-2.83Q85.15-2.83 86.08-3.03 87-3.22 87.66-3.49 88.32-3.76 88.79-4.03 89.25-4.3 89.59-4.54L89.59-4.54 89.93-4.79Q90.23-4.79 90.23-4.15L90.23-4.15Q90.23-3.76 89.93-3.27L89.93-3.27Q88.96-1.9 87.05-0.81 85.15 0.29 82.9 0.29L82.9 0.29Q78.85 0.29 75.94-2.76 73.04-5.81 73.04-10.21L73.04-10.21Q73.04-15.33 75.8-18.31 78.56-21.29 82.71-21.29ZM122.94-9.08L123.18-8.94Q123.18-8.4 122.5-5.2 121.82-2 121.52-1.86L121.52-1.86Q117.96 0.29 109.85 0.29L109.85 0.29Q103.41 0.29 98.89-4.44 94.37-9.18 94.37-15.72L94.37-15.72Q94.37-22.66 99.01-27.61 103.65-32.57 110.39-32.57L110.39-32.57Q116.15-32.57 122.26-31.35L122.26-31.35Q122.16-24.8 122.16-24.32L122.16-24.32Q122.16-23.58 121.13-23.58L121.13-23.58Q120.64-23.58 120.5-23.83L120.5-23.83Q120.35-24.46 120.13-25.12 119.91-25.78 119.2-26.83 118.5-27.88 117.49-28.64 116.49-29.39 114.66-29.96 112.83-30.52 110.54-30.52L110.54-30.52Q105.75-30.52 102.38-26.29 99.01-22.07 99.01-16.75L99.01-16.75Q99.01-12.79 100.38-9.47 101.75-6.15 104.7-3.98 107.66-1.81 111.71-1.81L111.71-1.81Q116.54-1.81 119.18-4.64L119.18-4.64Q119.86-5.37 120.38-6.57 120.89-7.76 121.16-8.57 121.43-9.38 121.57-9.38L121.57-9.38Q121.87-9.38 122.28-9.28 122.7-9.18 122.94-9.08L122.94-9.08ZM136.12-19.43L136.12-19.43Q133.53-19.43 131.9-17.07 130.26-14.7 130.26-11.28L130.26-11.28Q130.26-7.28 132.34-4.42 134.41-1.56 137.19-1.56L137.19-1.56Q139.78-1.56 141.44-4 143.1-6.45 143.1-9.86L143.1-9.86Q143.1-13.82 141-16.63 138.9-19.43 136.12-19.43ZM136.66-21.34L136.66-21.34Q141.05-21.34 144.18-18.16 147.3-14.99 147.3-10.55L147.3-10.55Q147.3-6.05 144.25-2.86 141.2 0.34 136.76 0.34 132.31 0.34 129.19-2.86 126.06-6.05 126.06-10.55L126.06-10.55Q126.06-15.09 129.09-18.21 132.12-21.34 136.66-21.34ZM164.88-21.39L164.88-21.39Q168.3-21.39 169.66-18.95 171.03-16.5 171.03-11.04L171.03-11.04 171.03-6.59Q171.03-3.76 171.42-2.25L171.42-2.25Q171.52-1.9 172.69-1.59 173.86-1.27 174.35-1.27L174.35-1.27Q174.5-1.27 174.55-0.68 174.59-0.1 174.5 0.15L174.5 0.15Q169.61-0.1 169.27-0.1L169.27-0.1Q169.17-0.1 164.15 0.15L164.15 0.15Q163.95-0.05 163.95-0.66 163.95-1.27 164.15-1.27L164.15-1.27Q164.73-1.27 165.78-1.59 166.83-1.9 166.93-2.25L166.93-2.25Q167.27-3.66 167.27-5.66L167.27-5.66 167.27-10.55Q167.27-15.09 166.1-16.75 164.93-18.41 162.29-18.41L162.29-18.41Q160.73-18.41 159.29-17.26 157.85-16.11 157.85-15.19L157.85-15.19 157.85-6.59Q157.85-3.76 158.24-2.25L158.24-2.25Q158.33-1.9 159.51-1.59 160.68-1.27 161.17-1.27L161.17-1.27Q161.31-1.27 161.36-0.68 161.41-0.1 161.31 0.15L161.31 0.15Q156.43-0.1 156.09-0.1L156.09-0.1Q155.8-0.1 150.77 0.15L150.77 0.15Q150.57-0.05 150.57-0.66 150.57-1.27 150.77-1.27L150.77-1.27Q151.35-1.27 152.5-1.59 153.65-1.9 153.74-2.25L153.74-2.25Q154.09-3.66 154.09-5.66L154.09-5.66 154.09-14.89Q154.09-16.8 153.4-17.53L153.4-17.53Q152.91-18.12 152.21-18.33 151.5-18.55 151.03-18.55 150.57-18.55 150.57-18.65L150.57-18.65Q150.57-19.82 150.86-19.87L150.86-19.87Q156.04-20.65 157.6-21.14L157.6-21.14Q157.65-21.14 157.75-21.17 157.85-21.19 157.85-21.19L157.85-21.19Q158.04-21.19 158.09-20.78 158.14-20.36 158.09-20.17L158.09-20.17Q157.9-18.8 157.9-18.21L157.9-18.21Q157.9-18.02 157.99-18.02L157.99-18.02Q158.04-18.02 158.14-18.12L158.14-18.12Q159.26-19.29 161.19-20.34 163.12-21.39 164.88-21.39ZM191.39-21.39L191.39-21.39Q194.81-21.39 196.17-18.95 197.54-16.5 197.54-11.04L197.54-11.04 197.54-6.59Q197.54-3.76 197.93-2.25L197.93-2.25Q198.03-1.9 199.2-1.59 200.37-1.27 200.86-1.27L200.86-1.27Q201.01-1.27 201.06-0.68 201.11-0.1 201.01 0.15L201.01 0.15Q196.13-0.1 195.78-0.1L195.78-0.1Q195.69-0.1 190.66 0.15L190.66 0.15Q190.46-0.05 190.46-0.66 190.46-1.27 190.66-1.27L190.66-1.27Q191.24-1.27 192.29-1.59 193.34-1.9 193.44-2.25L193.44-2.25Q193.78-3.66 193.78-5.66L193.78-5.66 193.78-10.55Q193.78-15.09 192.61-16.75 191.44-18.41 188.8-18.41L188.8-18.41Q187.24-18.41 185.8-17.26 184.36-16.11 184.36-15.19L184.36-15.19 184.36-6.59Q184.36-3.76 184.75-2.25L184.75-2.25Q184.85-1.9 186.02-1.59 187.19-1.27 187.68-1.27L187.68-1.27Q187.82-1.27 187.87-0.68 187.92-0.1 187.82 0.15L187.82 0.15Q182.94-0.1 182.6-0.1L182.6-0.1Q182.31-0.1 177.28 0.15L177.28 0.15Q177.08-0.05 177.08-0.66 177.08-1.27 177.28-1.27L177.28-1.27Q177.86-1.27 179.01-1.59 180.16-1.9 180.26-2.25L180.26-2.25Q180.6-3.66 180.6-5.66L180.6-5.66 180.6-14.89Q180.6-16.8 179.91-17.53L179.91-17.53Q179.43-18.12 178.72-18.33 178.01-18.55 177.55-18.55 177.08-18.55 177.08-18.65L177.08-18.65Q177.08-19.82 177.38-19.87L177.38-19.87Q182.55-20.65 184.11-21.14L184.11-21.14Q184.16-21.14 184.26-21.17 184.36-21.19 184.36-21.19L184.36-21.19Q184.55-21.19 184.6-20.78 184.65-20.36 184.6-20.17L184.6-20.17Q184.41-18.8 184.41-18.21L184.41-18.21Q184.41-18.02 184.5-18.02L184.5-18.02Q184.55-18.02 184.65-18.12L184.65-18.12Q185.77-19.29 187.7-20.34 189.63-21.39 191.39-21.39ZM213.16-19.48L213.16-19.48Q210.62-19.48 209.28-17.31 207.94-15.14 207.94-13.72L207.94-13.72Q207.94-13.38 208.23-13.38L208.23-13.38 217.75-13.38Q218-13.38 218-13.87L218-13.87Q218-15.43 216.68-17.46 215.36-19.48 213.16-19.48ZM213.65-21.29L213.65-21.29Q215.9-21.29 217.61-20.43 219.32-19.58 220.22-18.24 221.12-16.89 221.54-15.5 221.95-14.11 221.95-12.74L221.95-12.74Q221.95-11.77 221.66-11.55 221.37-11.33 220.54-11.33L220.54-11.33 208.23-11.33Q207.84-11.33 207.84-11.08L207.84-11.08Q207.84-8.01 209.7-5.42 211.55-2.83 215.07-2.83L215.07-2.83Q216.09-2.83 217.02-3.03 217.95-3.22 218.61-3.49 219.27-3.76 219.73-4.03 220.19-4.3 220.54-4.54L220.54-4.54 220.88-4.79Q221.17-4.79 221.17-4.15L221.17-4.15Q221.17-3.76 220.88-3.27L220.88-3.27Q219.9-1.9 218-0.81 216.09 0.29 213.85 0.29L213.85 0.29Q209.79 0.29 206.89-2.76 203.98-5.81 203.98-10.21L203.98-10.21Q203.98-15.33 206.74-18.31 209.5-21.29 213.65-21.29ZM234.45-21.29L234.45-21.29Q239.82-21.29 241.87-18.8L241.87-18.8Q241.87-15.53 240.07-15.53L240.07-15.53Q239.24-15.53 238.8-15.89 238.36-16.26 237.67-17.24L237.67-17.24Q236.16-19.48 234.06-19.48L234.06-19.48Q232.06-19.48 230.42-17.58 228.79-15.67 228.79-11.91L228.79-11.91Q228.79-8.01 230.71-5.42 232.64-2.83 236.06-2.83L236.06-2.83Q237.09-2.83 238.01-3.03 238.94-3.22 239.6-3.49 240.26-3.76 240.72-4.03 241.19-4.3 241.53-4.54L241.53-4.54 241.87-4.79Q242.17-4.79 242.17-4.15L242.17-4.15Q242.17-3.76 241.87-3.27L241.87-3.27Q240.9-1.9 238.99-0.81 237.09 0.29 234.84 0.29L234.84 0.29Q230.79 0.29 227.88-2.76 224.98-5.81 224.98-10.21L224.98-10.21Q224.98-14.7 227.42-17.99 229.86-21.29 234.45-21.29ZM246.85-5.86L246.85-18.26 244.02-18.26Q243.77-18.26 243.77-19.29L243.77-19.29Q243.77-19.58 243.82-19.63L243.82-19.63Q245.24-20.26 246.9-22.22L246.9-22.22Q247.44-22.85 247.95-23.66 248.46-24.46 248.8-25.05 249.14-25.63 249.14-25.68L249.14-25.68Q250.61-25.68 250.61-25.44L250.61-25.44 250.61-20.61Q251.88-20.61 254.47-20.58 257.06-20.56 257.2-20.56L257.2-20.56Q257.59-20.56 257.59-20.12L257.59-20.12Q257.59-19.24 257.1-18.26L257.1-18.26 250.61-18.26 250.61-6.3Q250.61-4.35 251.61-3.17 252.61-2 254.22-2L254.22-2Q255.69-2 257.25-2.93L257.25-2.93Q257.4-3.03 257.69-2.51 257.98-2 257.93-1.95L257.93-1.95Q257.2-1.17 255.69-0.42 254.17 0.34 252.56 0.34L252.56 0.34Q250.12 0.34 248.49-1.27 246.85-2.88 246.85-5.86L246.85-5.86Z" opacity="1" transform="matrix(1,0,0,1,0,0)" fill="#444444" class="wordmark-text-0" data-fill-palette-color="primary" id="text-0"></path></svg></g></svg></g></svg></g></svg></g><g><svg viewBox="0 0 99.17948724675692 99.15058037201288" height="99.15058037201288" width="99.17948724675692"><g><svg xmlns="http://www.w3.org/2000/svg" xml:space="preserve" viewBox="5.143 5.361 89.206 89.17999999999999" x="0" y="0" height="99.15058037201288" width="99.17948724675692" class="icon-icon-0" data-fill-palette-color="accent" id="icon-0"><path fill-rule="evenodd" d="M50.026 94.541C25.69 94.528 5.245 76.394 5.143 49.977 5.245 23.509 26.749 5.361 50.078 5.361c26.672 0 44.169 23.916 44.169 44.615 0 7.045 0 7.325-2.348 14.076l-52.617 0.026c-1.251-0.013-2.259-1.34-2.259-2.591s1.034-1.953 2.272-1.953l10.707-0.102v-1.225H32.428a2.255 2.255 0 0 1-2.259-2.259c0-1.251 1.034-2.233 2.272-2.233h17.56l-0.013-1.493H30.233c-1.251-0.013-2.259-1.021-2.259-2.272s1.021-2.259 2.259-2.259h19.768v-1.506H34.763a2.274 2.274 0 0 1-2.259-2.272c0-1.251 1.034-2.195 2.259-2.17h26.634V40.15H52.17c-1.2-0.013-2.182-1.021-2.182-2.272s1.161-2.208 2.182-2.208l9.125-0.026c6.777 0 11.345 6.1 11.345 10.541h3.637c-0.906-11.486-11.179-22.678-26.2-22.665-17.547-0.011-26.417 14.486-26.366 26.457C23.66 64.079 35.108 76.1 49.478 76.394c0-4.428 4.569-10.529 11.345-10.529l9.125 0.026c1.021 0 2.182 0.957 2.182 2.208s-0.983 2.259-2.182 2.272h-9.227v1.595h26.838c1.225-0.026 2.259 0.919 2.259 2.17s-1.008 2.259-2.259 2.272H72.117v1.506H92.09a2.263 2.263 0 0 1 2.259 2.259 2.274 2.274 0 0 1-2.259 2.272H72.13l-0.013 1.493h17.765c1.238 0 2.272 0.983 2.272 2.233a2.255 2.255 0 0 1-2.259 2.259H72.117v1.429l10.911 0.102c1.238 0 2.272 0.702 2.272 1.953s-1.008 2.578-2.259 2.591z" clip-rule="evenodd" fill="#16a085" data-fill-palette-color="accent"></path></svg></g></svg></g></svg></g><defs></defs></svg><rect width="395.52" height="77.39320826022846" fill="none" stroke="none" visibility="hidden"></rect></g></svg></g></svg>